<svg xmlns="http://www.w3.org/2000/svg" viewBox="0 0 226.48 39.53"><defs><style>.cls-1{fill:#0081c6}</style></defs><title>aerolineasplus</title><path class="cls-1" d="M206.61 6.72c-5.27.91-12.42 1.59-17.81 3.2-.08 0-.07.07 0 .06 13-.39 27.09-.32 37.61 0l.06-.07c-.25-1.24-1.22-2.65-4.13-2.64h-1.69a1.08 1.08 0 0 1-1.71 1.26 1 1 0 0 1 .2-1.7c.68-.48 1.75-1.18 2.38-1.57 2.23-1.41 1.92-3.44-1-3.66-7.22-.47-19.99-1.2-25.03-1.6-.11 0-.18.07-.1.12 4.17 2.26 8 2.46 12.14 4 2.37.88 1.9 2.11-.92 2.6zM18.36 13.26a2.94 2.94 0 0 0-.87-1 3.11 3.11 0 0 0-1.11-.47 5.45 5.45 0 0 0-1.1-.11 5.37 5.37 0 0 0-1.16.13 4.63 4.63 0 0 0-1.23.47 4.47 4.47 0 0 0-1.14.9 5.75 5.75 0 0 0-.94 1.44L.11 37.88a1.15 1.15 0 0 0-.11.53.85.85 0 0 0 .25.65.94.94 0 0 0 .65.22h2.18a1.18 1.18 0 0 0 .68-.28 1.17 1.17 0 0 0 .45-.55l3.6-7.95h8.61l.85 7.84a1.39 1.39 0 0 0 .21.56.8.8 0 0 0 .67.34h2.17a1 1 0 0 0 .76-.3 1.14 1.14 0 0 0 .25-.78V38l-2.5-23.27a4 4 0 0 0-.47-1.47zm-9 13.65l5.04-11.16c.17-.35.28-.39.45-.4h.09a.48.48 0 0 1 .08.26l1.13 11.28zm30.15-4a6 6 0 0 0-1.3-2.25A6.25 6.25 0 0 0 36 19.15a7.79 7.79 0 0 0-3-.55 9.14 9.14 0 0 0-6.52 2.4 12.12 12.12 0 0 0-3.35 6.76l-.46 2.5a12.77 12.77 0 0 0-.22 2.29 7.36 7.36 0 0 0 .65 3.24 6.2 6.2 0 0 0 1.7 2.17 6.66 6.66 0 0 0 2.39 1.21 9.86 9.86 0 0 0 2.69.37 29.48 29.48 0 0 0 3.28-.16q1.42-.16 3-.45a1.4 1.4 0 0 0 .85-.38 1.54 1.54 0 0 0 .33-.77l.22-1.25v-.18a.72.72 0 0 0-.28-.59 1 1 0 0 0-.59-.17h-.27q-1.24.18-2.91.34t-3.21.16a5 5 0 0 1-3-.81 3 3 0 0 1-1-2.6c0-.32 0-.65.05-1a5.88 5.88 0 0 1 .22-1.07v-.14h11.65a1 1 0 0 0 .88-.38 1.8 1.8 0 0 0 .31-.73l.29-1.5a12 12 0 0 0 .22-2.22 8.78 8.78 0 0 0-.42-2.72zm-3.72 4.35h-8.63a9 9 0 0 1 .65-1.88A6.9 6.9 0 0 1 29 23.67a4.67 4.67 0 0 1 3.54-1.51 3.57 3.57 0 0 1 2.6.83 3.41 3.41 0 0 1 .86 2.55 9.42 9.42 0 0 1-.22 1.73zm16.68-6.05l.26-1.53v-.17a.86.86 0 0 0-.32-.7 1.16 1.16 0 0 0-.73-.21h-.08a10.86 10.86 0 0 0-2.63.33 7.08 7.08 0 0 0-2.1 1v-.07a1 1 0 0 0-.24-.71.94.94 0 0 0-.7-.27h-1.68a1.15 1.15 0 0 0-.79.32 1.41 1.41 0 0 0-.42.7l-3.19 18.22v.18a1 1 0 0 0 .24.71.93.93 0 0 0 .69.27h1.76a1.21 1.21 0 0 0 .8-.31 1.36 1.36 0 0 0 .45-.71l2.58-14.78a9.19 9.19 0 0 1 2.19-1 9.38 9.38 0 0 1 2.55-.31h.11a1.15 1.15 0 0 0 1.25-.95zm16.15 5.54a9.9 9.9 0 0 0 .05-1 8.89 8.89 0 0 0-.43-2.82 6.1 6.1 0 0 0-1.34-2.27 6.22 6.22 0 0 0-2.21-1.49 8 8 0 0 0-3-.53c-5.47 0-8.88 3.12-9.85 9l-.46 2.71-.13 1a9.1 9.1 0 0 0-.05 1 8.63 8.63 0 0 0 .45 2.86 6.42 6.42 0 0 0 1.33 2.26A6 6 0 0 0 55.14 39a7.88 7.88 0 0 0 3 .53A11.06 11.06 0 0 0 62 38.9a8.3 8.3 0 0 0 2.92-1.82 9.26 9.26 0 0 0 2-2.85A15.4 15.4 0 0 0 68 30.49l.46-2.71c.07-.35.12-.68.15-1.02zm-3.93-.14a9 9 0 0 1-.14 1l-.46 2.72a8.53 8.53 0 0 1-.7 2.3 6.68 6.68 0 0 1-1.19 1.77 5.07 5.07 0 0 1-1.6 1.14 4.72 4.72 0 0 1-2 .41 3.6 3.6 0 0 1-2.71-.84 3.68 3.68 0 0 1-.8-2.61 11.6 11.6 0 0 1 .21-2l.46-2.71a7.74 7.74 0 0 1 1.87-4.14 4.64 4.64 0 0 1 3.56-1.48 3.51 3.51 0 0 1 2.7.86 3.83 3.83 0 0 1 .8 2.65q.03.45-.01.93zm12-14a1 1 0 0 0-.23-.68.9.9 0 0 0-.67-.26h-1.85a1.14 1.14 0 0 0-1.19 1l-4.47 25.45v.18a1 1 0 0 0 .23.69.87.87 0 0 0 .66.28H71a1.1 1.1 0 0 0 .79-.33 1.46 1.46 0 0 0 .39-.69l4.52-25.48zm6 7.24a.91.91 0 0 0-1-1H80a1.2 1.2 0 0 0-.8.31 1.36 1.36 0 0 0-.45.71L75.6 38.12v.18a1 1 0 0 0 .26.71 1 1 0 0 0 .72.26h1.72a1.22 1.22 0 0 0 .79-.31 1.37 1.37 0 0 0 .45-.71L82.73 20zm-2.88-3.06a.73.73 0 0 0 .46.13h1.93a1.1 1.1 0 0 0 .69-.21 5.37 5.37 0 0 0 .48-.44l2.88-3.51a.88.88 0 0 0 .31-.62.58.58 0 0 0-.29-.51.9.9 0 0 0-.48-.11h-2.3a1.17 1.17 0 0 0-.73.21 5.77 5.77 0 0 0-.48.44l-2.33 3.45a1 1 0 0 0-.33.67.6.6 0 0 0 .23.49zm19.47 3.57a4.78 4.78 0 0 0-1.81-1.29 6.67 6.67 0 0 0-2.6-.46 9.27 9.27 0 0 0-3.28.53 20 20 0 0 0-1.95.86v-.16a1.08 1.08 0 0 0-.2-.63.87.87 0 0 0-.74-.35H87a1.15 1.15 0 0 0-.79.32 1.39 1.39 0 0 0-.42.7l-3.2 18.24v.18a1.07 1.07 0 0 0 .2.63.86.86 0 0 0 .72.35h1.77a1.22 1.22 0 0 0 .8-.31 1.38 1.38 0 0 0 .45-.71l2.61-14.86a13.77 13.77 0 0 1 2.58-1 9.22 9.22 0 0 1 2.09-.26 3.33 3.33 0 0 1 2.34.58 2.38 2.38 0 0 1 .57 1.72 8.71 8.71 0 0 1-.05.9c0 .34-.08.67-.12 1l-2.08 11.78v.18a.91.91 0 0 0 1 1h1.71A1.22 1.22 0 0 0 98 39a1.37 1.37 0 0 0 .45-.71l2.07-11.75a11.29 11.29 0 0 0 .18-2 7.7 7.7 0 0 0-.32-2.26 5.19 5.19 0 0 0-1.06-1.93zm18 .31a6.25 6.25 0 0 0-2.17-1.51 7.78 7.78 0 0 0-3-.55 9.13 9.13 0 0 0-6.5 2.37 12.14 12.14 0 0 0-3.35 6.76l-.46 2.5a12.91 12.91 0 0 0-.22 2.29 7.37 7.37 0 0 0 .65 3.24 6.19 6.19 0 0 0 1.7 2.17 6.69 6.69 0 0 0 2.39 1.21 9.86 9.86 0 0 0 2.69.37 29.47 29.47 0 0 0 3.28-.16q1.42-.16 3-.45a1.41 1.41 0 0 0 .86-.38 1.56 1.56 0 0 0 .33-.77l.22-1.25v-.18a.72.72 0 0 0-.27-.59 1 1 0 0 0-.6-.17h-.27q-1.24.18-2.91.34t-3.21.16a5 5 0 0 1-3-.81 3 3 0 0 1-1-2.6 9.79 9.79 0 0 1 .05-1 5.72 5.72 0 0 1 .22-1.07v-.14h11.64a1 1 0 0 0 .88-.37 1.84 1.84 0 0 0 .3-.73l.29-1.5a12 12 0 0 0 .22-2.22 8.75 8.75 0 0 0-.41-2.73 6 6 0 0 0-1.26-2.24zm-2.28 6.6h-8.62a9 9 0 0 1 .65-1.88 7 7 0 0 1 1.16-1.72 4.67 4.67 0 0 1 3.54-1.51 3.57 3.57 0 0 1 2.6.83 3.41 3.41 0 0 1 .84 2.55 9.37 9.37 0 0 1-.17 1.73zm22.68-6.91a.83.83 0 0 0-.31-.64 1.55 1.55 0 0 0-.66-.29 26.33 26.33 0 0 0-3-.59 23.44 23.44 0 0 0-3.3-.24 12.15 12.15 0 0 0-3.21.42 8.27 8.27 0 0 0-2.87 1.43 8.72 8.72 0 0 0-2.33 2.62 12.58 12.58 0 0 0-1.37 4L120 30.6a11.46 11.46 0 0 0-.22 2.21 8.49 8.49 0 0 0 .47 3 5.92 5.92 0 0 0 1.29 2.1 5.11 5.11 0 0 0 1.92 1.24 6.57 6.57 0 0 0 2.29.4 9.76 9.76 0 0 0 1.67-.13 7.12 7.12 0 0 0 1.46-.42 10.43 10.43 0 0 0 1.38-.69l.68-.43v.44a1.14 1.14 0 0 0 .17.64.88.88 0 0 0 .77.34h1.43a1.16 1.16 0 0 0 .79-.32 1.42 1.42 0 0 0 .42-.7l3.07-17.5a1.38 1.38 0 0 0 .04-.41zm-6.38 13.81a17.63 17.63 0 0 1-2.5 1.4 5.65 5.65 0 0 1-2.3.5 2.75 2.75 0 0 1-1.92-.72 3.39 3.39 0 0 1-.78-2.59v-.78s.06-.53.1-.78l.64-3.67a7.56 7.56 0 0 1 1.85-4.12 5.32 5.32 0 0 1 4-1.36 14.58 14.58 0 0 1 1.89.11l1.1.17zm21.43-15.1l-1.08-.2q-.52-.09-1.12-.15l-1.34-.09h-1.79a15 15 0 0 0-2.73.26 7.15 7.15 0 0 0-2.5.95 5.64 5.64 0 0 0-1.81 1.82 5.38 5.38 0 0 0-.71 2.87c0 1.76 1.11 3.32 3.14 4.65l3.21 2.08a5.92 5.92 0 0 1 1.57 1.25 1.57 1.57 0 0 1 .34.94 2.47 2.47 0 0 1-.28 1.24 2.17 2.17 0 0 1-.75.78 3.74 3.74 0 0 1-1.16.45 6.66 6.66 0 0 1-1.43.15h-1.14L141.7 36l-1.51-.12-1.38-.14h-.26a1 1 0 0 0-1.08.86l-.22 1.29V38a.87.87 0 0 0 .35.74 1.81 1.81 0 0 0 .55.25c.43.1.89.19 1.39.26s1 .13 1.51.17l1.47.09h1.31a13.85 13.85 0 0 0 2.93-.31 7.66 7.66 0 0 0 2.59-1.06 5.53 5.53 0 0 0 1.82-2 6.18 6.18 0 0 0 .69-3.05 4.49 4.49 0 0 0-.72-2.43 8.79 8.79 0 0 0-2.61-2.37l-3.22-2.1a7.54 7.54 0 0 1-1.31-1.04 1.3 1.3 0 0 1-.4-.93 1.67 1.67 0 0 1 .28-1 2.19 2.19 0 0 1 .77-.65 3.67 3.67 0 0 1 1.09-.35 7.48 7.48 0 0 1 1.2-.1q1.49 0 2.88.09t2.32.19h.15a1.07 1.07 0 0 0 1.11-.94l.18-1.22V20a1 1 0 0 0-.9-.92zm21.94 1.2a11.47 11.47 0 0 0 .11-1.46 5.92 5.92 0 0 0-.62-2.81 5.32 5.32 0 0 0-1.77-2 8.3 8.3 0 0 0-2.75-1.14 15.88 15.88 0 0 0-3.6-.37q-1.57 0-3.18.07t-2.78.21a1.1 1.1 0 0 0-1 .89l-4.35 24.86v.14c0 .38.16.57.5.57h1.93a.68.68 0 0 0 .5-.21 1.06 1.06 0 0 0 .29-.5l1.75-10c.45 0 1 .09 1.68.13s1.29.05 1.86.05a23.41 23.41 0 0 0 4.07-.34 9.83 9.83 0 0 0 3.42-1.25 8 8 0 0 0 2.53-2.46 9.55 9.55 0 0 0 1.39-3.94zm-3.25 0l-.07.46a5.75 5.75 0 0 1-2.19 3.91 9.1 9.1 0 0 1-5.48 1.36h-1.84l-1-.05h-.78L162 15.42q.64-.07 1.7-.11t1.91 0a9.54 9.54 0 0 1 4.51.82 3.06 3.06 0 0 1 1.41 2.87 8.37 8.37 0 0 1-.11 1.26zm9.89-7.27q0-.54-.5-.54H179a.72.72 0 0 0-.78.68l-4.46 25.43v.14c0 .38.17.57.5.57h1.86a.68.68 0 0 0 .5-.21 1.07 1.07 0 0 0 .29-.5l4.46-25.43zm16.8 7.24a.68.68 0 0 0-.12-.39.47.47 0 0 0-.41-.18h-1.75a.8.8 0 0 0-.54.21 1 1 0 0 0-.32.5l-2.64 15.08a18.83 18.83 0 0 1-2.64 1 9.08 9.08 0 0 1-2.43.36 4.37 4.37 0 0 1-2.55-.57 2.43 2.43 0 0 1-.77-2.07 11.53 11.53 0 0 1 .21-2l2.07-11.73v-.14a.51.51 0 0 0-.57-.57h-1.71a.81.81 0 0 0-.54.21 1 1 0 0 0-.32.5l-2 11.34a12.14 12.14 0 0 0-.22 2.17 5.65 5.65 0 0 0 1.45 4.23 5.16 5.16 0 0 0 3.76 1.41 10.62 10.62 0 0 0 3-.39 16.9 16.9 0 0 0 3-1.21l-.11.64v.14c0 .38.18.57.54.57h1.68a.74.74 0 0 0 .52-.21 1 1 0 0 0 .3-.5l3.17-18.19zm14.63-.36l-1.07-.2c-.33-.06-.7-.11-1.09-.14l-1.32-.09h-1.77a14.63 14.63 0 0 0-2.66.25 6.78 6.78 0 0 0-2.36.89 5.23 5.23 0 0 0-1.68 1.7 5 5 0 0 0-.65 2.65q0 2.35 3 4.32l3.25 2.11a6.19 6.19 0 0 1 1.61 1.31 2 2 0 0 1 .41 1.18 2.84 2.84 0 0 1-.34 1.44 2.57 2.57 0 0 1-.89.93 4.07 4.07 0 0 1-1.28.5 7 7 0 0 1-1.52.16h-1.16l-1.46-.09-1.51-.12-1.39-.14h-.21a.61.61 0 0 0-.65.46l-.21 1.25v.11a.46.46 0 0 0 .18.41 1.39 1.39 0 0 0 .43.2c.4.1.85.18 1.34.25s1 .13 1.48.16l1.46.09h1.28a13.31 13.31 0 0 0 2.85-.3 7.23 7.23 0 0 0 2.45-1 5.19 5.19 0 0 0 1.74-1.78 5.81 5.81 0 0 0 .63-2.85 4.06 4.06 0 0 0-.65-2.21 8.4 8.4 0 0 0-2.49-2.25L205.24 27a7.8 7.8 0 0 1-1.45-1.14 1.71 1.71 0 0 1-.51-1.21 2.07 2.07 0 0 1 .36-1.27 2.59 2.59 0 0 1 .91-.77 4 4 0 0 1 1.21-.39 7.9 7.9 0 0 1 1.27-.11q1.5 0 2.91.09t2.34.2h.11a.65.65 0 0 0 .71-.61l.18-1.18v-.14c-.01-.33-.19-.47-.54-.59z" id="aerolineas_plus"/></svg>