<?xml version="1.0" encoding="utf-8"?>
<!-- Generator: Adobe Illustrator 21.1.0, SVG Export Plug-In . SVG Version: 6.00 Build 0)  -->
<svg version="1.1" id="Capa_1" xmlns="http://www.w3.org/2000/svg" xmlns:xlink="http://www.w3.org/1999/xlink" x="0px" y="0px"
	 viewBox="0 0 58 58" style="enable-background:new 0 0 58 58;" xml:space="preserve">
<style type="text/css">
	.st0{fill:#00C613;}
	.st1{opacity:0.4;}
	.st2{fill:#157C1D;}
</style>
<g>
	<path class="st0" d="M54.7,24.6c-1.2-2.1-3.4-5.4-4.7-7.5c-0.6-1.1-1.8-2.4-4.2-2.4H35.5v19.7H9.1v4.4c0,1.2,0.9,2.3,2.3,2.3h2.3
		c0,3.7,2.9,6.6,6.6,6.6s6.6-2.9,6.6-6.6h8.7c0,3.7,2.9,6.6,6.6,6.6c3.7,0,6.6-2.9,6.6-6.6h2.3c2.8,0,4.4-2,4.4-4.4v-9.8
		C55.2,26,55.1,25.3,54.7,24.6z M20.1,43.9c-1.5,0-2.7-1.1-2.7-2.7c0-1.5,1.1-2.7,2.7-2.7c1.5,0,2.7,1.1,2.7,2.7
		C22.9,42.5,21.7,43.9,20.1,43.9z M42.2,43.9c-1.5,0-2.7-1.1-2.7-2.7c0-1.5,1.1-2.7,2.7-2.7c1.5,0,2.7,1.1,2.7,2.7
		C44.6,42.5,43.5,43.9,42.2,43.9z M39.9,25.7v-6.6h5.4c0.8,0,1.6,0.4,2,1.1l3.1,5.5C50.3,25.7,39.9,25.7,39.9,25.7z"/>
	<path class="st0" d="M4.8,21.4v4.4h4.4v6.6h24.1v-22c0-1.2-0.9-2.3-2.3-2.3H11.2c-1.2,0-2.3,0.9-2.3,2.3v2.3h11v2.3H2.7v4.4h17.5
		v2.3H4.8V21.4z"/>
</g>
<g class="st1">
	<path class="st2" d="M20.1,43.9c-1.5,0-2.7-1.1-2.7-2.7c0-1.3,0.9-2.5,2.3-2.7c-0.5-1.3-1-2.7-1.5-3.9H9.1v4.4
		c0,1.2,0.9,2.3,2.3,2.3h2.3c0,3.7,2.9,6.6,6.6,6.6c1.5,0,2.8-0.5,3.8-1.2c-0.7-1.1-1.5-2.3-2.1-3.5C21.5,43.5,20.8,43.9,20.1,43.9z
		"/>
	<path class="st2" d="M11.2,8.1c-1.2,0-2.3,0.9-2.3,2.3v2.3h7.8c0.3-1.6,0.5-3,1-4.6C17.7,8.1,11.2,8.1,11.2,8.1z"/>
	<path class="st2" d="M2.7,14.9v4.4h13.6c0-1.6,0.2-2.9,0.3-4.4C16.5,14.9,2.7,14.9,2.7,14.9z"/>
	<path class="st2" d="M4.8,21.5v4.2h4.4v6.6h8.5c-0.9-3.5-1.5-7.1-1.6-10.9C16.1,21.5,4.8,21.5,4.8,21.5z"/>
</g>
</svg>
