<?xml version="1.0" encoding="utf-8"?>
<!-- Generator: Adobe Illustrator 21.1.0, SVG Export Plug-In . SVG Version: 6.00 Build 0)  -->
<svg version="1.1" id="Capa_1" xmlns="http://www.w3.org/2000/svg" xmlns:xlink="http://www.w3.org/1999/xlink" x="0px" y="0px"
	 viewBox="0 0 58 58" style="enable-background:new 0 0 58 58;" xml:space="preserve">
<style type="text/css">
	.st0{fill:#FF507D;}
	.st1{fill:#D23C69;}
</style>
<path class="st0" d="M26.3,48.2c0.5,0.8,1.6,1.5,2.6,1.5c1,0,1.9-0.5,2.5-1.3c5.6-8.8,14-15.3,14-26.5c0-9.2-7.4-16.6-16.6-16.5
	c-10.2,0.1-17.6,9.7-16,19.8C14.3,34.5,21.4,40.4,26.3,48.2C26.3,48.2,26.3,48.2,26.3,48.2z M29,11.3c5.9,0,10.7,4.7,10.7,10.7
	S34.9,32.7,29,32.7S18.3,27.9,18.3,22C18.3,16.1,23.1,11.3,29,11.3z"/>
<path class="st1" d="M30.2,8.8c-1.7-0.2-3.3,0-4.8,0.4c-0.5,0.1-0.9-0.4-0.6-0.9c1.1-1.8,2.5-2.7,4-2.8l0,0
	C18.6,5.6,11.1,15,12.7,25.1c1.5,9.3,8.7,15.3,13.7,23.2c0.4,0.6,1,1.1,1.8,1.4c-1.4-5.5-3.4-9.9-4.8-14.9c-0.1-0.5,0.3-0.8,0.8-0.7
	c1.5,0.6,3.1,0.9,4.8,0.9c7.5,0.2,13.5-5.9,13.2-13.4C41.9,15,36.7,9.5,30.2,8.8z M29,31.3c-5.1,0-9.3-4.2-9.3-9.3
	c0-5.1,4.2-9.3,9.3-9.3s9.3,4.1,9.3,9.3C38.3,27.1,34.1,31.3,29,31.3z"/>
</svg>
