<svg xmlns="http://www.w3.org/2000/svg" viewBox="0 0 64.94 45.09"><defs><style>.cls-1{fill:#f8f8f8}.cls-2{fill:#e5e5e5}.cls-3,.cls-5{fill:#00579f}.cls-3,.cls-4{fill-rule:evenodd}.cls-4{fill:#faa61a}</style></defs><title>visa-debito</title><g id="Capa_1_copia"><path class="cls-1" d="M.5.5h63.94v44.04H.5z"/><path class="cls-2" d="M64.97 45.04h-65v-45h65zm-64-1h63v-43h-63z"/><path class="cls-3" d="M24.87 30.63l2.61-16.13h4.17l-2.61 16.13h-4.17z"/><path class="cls-3" d="M44.18 14.86a10.29 10.29 0 0 0-3.74-.69c-4.12 0-7 2.2-7 5.34 0 2.32 2.08 3.6 3.66 4.38s2.16 1.3 2.16 2c0 1.08-1.31 1.58-2.51 1.58a8.29 8.29 0 0 1-3.91-.86l-.55-.26-.61 3.65a12.72 12.72 0 0 0 4.65.86c4.37 0 7.22-2.16 7.26-5.51 0-1.84-1.1-3.24-3.5-4.39-1.46-.74-2.35-1.24-2.35-2s.76-1.39 2.4-1.39a7.09 7.09 0 0 1 3.11.62l.38.17.57-3.48zm5.55 10.02l1.66-4.51s.34-.94.55-1.55l.29 1.39s.79 3.86 1 4.67zm5.15-10.41h-3.23a2.06 2.06 0 0 0-2.18 1.34l-6.19 14.78h4.38l.87-2.42h5.35c.12.56.5 2.42.5 2.42h3.86l-3.36-16.13zm-33.46-.01l-4.08 11-.45-2.23a12.35 12.35 0 0 0-5.77-6.76l3.74 14.1h4.41l6.55-16.11z" transform="translate(-.03 .04)"/><path class="cls-4" d="M13.54 14.46H6.83l-.07.33c5.23 1.34 8.7 4.56 10.12 8.44l-1.46-7.41a1.73 1.73 0 0 0-1.89-1.35z" transform="translate(-.03 .04)"/></g><g id="Capa_1_copia_6"><path class="cls-1" d="M.5.55h63.94v44.04H.5z"/><path class="cls-2" d="M64.97 45.04h-65v-45h65zm-64-1h63v-43h-63z"/><path class="cls-5" d="M31.64 9.13h-4.17l-2.6 16.13h4.17l2.6-16.13z"/><path class="cls-5" d="M36.32 25.46c4.37 0 7.22-2.16 7.26-5.51 0-1.84-1.1-3.24-3.5-4.39-1.46-.74-2.35-1.24-2.35-2s.76-1.39 2.4-1.39a7.1 7.1 0 0 1 3.11.62l.38.17.57-3.48a10.3 10.3 0 0 0-3.74-.69c-4.12 0-7 2.2-7 5.34 0 2.32 2.08 3.6 3.66 4.38s2.16 1.3 2.16 2c0 1.08-1.31 1.58-2.51 1.58a8.29 8.29 0 0 1-3.91-.86l-.59-.23-.58 3.62a12.72 12.72 0 0 0 4.64.84zm18.05-.24h3.86L54.87 9.09h-3.22a2.06 2.06 0 0 0-2.18 1.34l-6.2 14.79h4.38l.87-2.42h5.35c.13.57.5 2.42.5 2.42zm-4.65-5.71L51.39 15s.34-.94.55-1.55l.29 1.39s.79 3.86 1 4.67zM21.41 9.09l-4.08 11-.45-2.23-1.46-7.41a1.73 1.73 0 0 0-1.89-1.35h-6.7l-.07.33a16.85 16.85 0 0 1 4.39 1.81l3.71 14h4.41l6.55-16.15zm10.7 19.58a2.76 2.76 0 0 0-1.19-.58 6.8 6.8 0 0 0-1.46-.09h-2.8v8.14h2.94a5.55 5.55 0 0 0 1.3-.14 3 3 0 0 0 1-.41 3 3 0 0 0 .74-.74 4 4 0 0 0 .56-1.19 5.69 5.69 0 0 0 .19-1.66 5.46 5.46 0 0 0-.32-1.94 3.31 3.31 0 0 0-.96-1.39zm0 4.88a2.57 2.57 0 0 1-.6 1 1.81 1.81 0 0 1-.73.42 4.22 4.22 0 0 1-1.26.15h-1.78v-6.18h1.71a4.21 4.21 0 0 1 1.39.17 2.11 2.11 0 0 1 1 .92 3.79 3.79 0 0 1 .42 2 5 5 0 0 1-.19 1.52zm5.06-3.46a2.59 2.59 0 0 0-2 .82 3.26 3.26 0 0 0-.77 2.31 3.11 3.11 0 0 0 .76 2.24 3.07 3.07 0 0 0 3.74.3 2.52 2.52 0 0 0 .91-1.41l-1-.13a1.92 1.92 0 0 1-.62.92 1.53 1.53 0 0 1-.94.29 1.64 1.64 0 0 1-1.25-.52 2.27 2.27 0 0 1-.55-1.49h4.4v-.27a3.2 3.2 0 0 0-.75-2.27 2.52 2.52 0 0 0-1.93-.79zM35.5 32.6a1.82 1.82 0 0 1 .5-1.23 1.59 1.59 0 0 1 1.16-.46 1.53 1.53 0 0 1 1.24.58 2 2 0 0 1 .38 1.12z" transform="translate(-.03 .04)"/><path class="cls-5" d="M37.38 29.53l1.22-1.56h-1.31l-.74 1.56h.83z"/><path class="cls-5" d="M45.51 30.92a2.1 2.1 0 0 0-.8-.62 2.48 2.48 0 0 0-1-.22 2 2 0 0 0-1.62.79V28h-1v8.14H42v-.74a1.88 1.88 0 0 0 1.64.87 2.35 2.35 0 0 0 1.8-.83 3.37 3.37 0 0 0 .75-2.34 4 4 0 0 0-.18-1.2 3 3 0 0 0-.5-.98zm-.83 3.94a1.43 1.43 0 0 1-2.41-.2 3.06 3.06 0 0 1-.27-1.54 2.5 2.5 0 0 1 .48-1.65 1.44 1.44 0 0 1 1.13-.57 1.4 1.4 0 0 1 1.11.55 2.63 2.63 0 0 1 .46 1.71 2.59 2.59 0 0 1-.5 1.7z" transform="translate(-.03 .04)"/><path class="cls-5" d="M47.37 28.02h1v1.15h-1zm0 2.24h1v5.9h-1z"/><path class="cls-5" d="M51.67 35.26a.66.66 0 0 1-.34-.07.42.42 0 0 1-.17-.19 1.74 1.74 0 0 1-.05-.55V31h1v-.78h-1v-2.06l-1 .6v1.46h-.73V31h.73v3.39a3.58 3.58 0 0 0 .12 1.18 1 1 0 0 0 .42.45 1.71 1.71 0 0 0 .84.17 3.71 3.71 0 0 0 .76-.09l-.14-.88zm5.8-4.38a2.65 2.65 0 0 0-2-.8 2.74 2.74 0 0 0-1.86.66 3 3 0 0 0-.91 2.43 3.17 3.17 0 0 0 .76 2.29 2.65 2.65 0 0 0 2 .79 2.89 2.89 0 0 0 1.42-.36 2.42 2.42 0 0 0 1-1 3.9 3.9 0 0 0 .34-1.79 3 3 0 0 0-.75-2.22zm-.75 4a1.65 1.65 0 0 1-2.48 0 2.51 2.51 0 0 1-.49-1.7 2.5 2.5 0 0 1 .49-1.69 1.65 1.65 0 0 1 2.48 0 2.44 2.44 0 0 1 .5 1.66 2.57 2.57 0 0 1-.5 1.71z" transform="translate(-.03 .04)"/></g></svg>